<?xml version="1.0" encoding="UTF-8" standalone="no"?>
<!-- Created with Inkscape (http://www.inkscape.org/) -->

<svg
   width="210mm"
   height="297mm"
   viewBox="0 0 210 297"
   version="1.1"
   id="svg1"
   inkscape:version="1.3.2 (091e20e, 2023-11-25, custom)"
   sodipodi:docname="bandeira-brasilsvg.svg"
   xmlns:inkscape="http://www.inkscape.org/namespaces/inkscape"
   xmlns:sodipodi="http://sodipodi.sourceforge.net/DTD/sodipodi-0.dtd"
   xmlns="http://www.w3.org/2000/svg"
   xmlns:svg="http://www.w3.org/2000/svg">
  <sodipodi:namedview
     id="namedview1"
     pagecolor="#505050"
     bordercolor="#eeeeee"
     borderopacity="1"
     inkscape:showpageshadow="0"
     inkscape:pageopacity="0"
     inkscape:pagecheckerboard="0"
     inkscape:deskcolor="#505050"
     inkscape:document-units="mm"
     inkscape:zoom="0.8391835"
     inkscape:cx="426.60515"
     inkscape:cy="477.24961"
     inkscape:window-width="1280"
     inkscape:window-height="667"
     inkscape:window-x="-8"
     inkscape:window-y="-8"
     inkscape:window-maximized="1"
     inkscape:current-layer="layer1" />
  <defs
     id="defs1">
    <linearGradient
       id="swatch22"
       inkscape:swatch="solid">
      <stop
         style="stop-color:#000000;stop-opacity:1;"
         offset="0"
         id="stop22" />
    </linearGradient>
    <linearGradient
       id="swatch19"
       inkscape:swatch="solid">
      <stop
         style="stop-color:#000000;stop-opacity:1;"
         offset="0"
         id="stop19" />
    </linearGradient>
  </defs>
  <g
     inkscape:label="Camada 1"
     inkscape:groupmode="layer"
     id="layer1">
    <rect
       style="fill:#ffffff;fill-opacity:1;stroke-width:1;stroke-linecap:square;stroke-linejoin:round;stroke-dasharray:none"
       id="rect17"
       width="211.8726"
       height="301.414"
       x="0.63057327"
       y="0.63057327" />
    <rect
       style="fill:#008000;fill-opacity:1;stroke-width:0.992404;stroke-linecap:square;stroke-linejoin:round;stroke-dasharray:none"
       id="rect18"
       width="211.24203"
       height="102.15286"
       x="2.5222931"
       y="83.866241" />
    <rect
       style="fill:#ffff00;fill-opacity:1;stroke:none;stroke-width:3.02332;stroke-linecap:square;stroke-linejoin:bevel;stroke-dasharray:none;stroke-opacity:1"
       id="rect22"
       width="117.40365"
       height="119.18594"
       x="155.85432"
       y="38.763195"
       ry="0"
       transform="matrix(0.90509539,0.42520859,-0.90034282,0.43518134,0,0)"
       inkscape:transform-center-x="-1.2163905"
       inkscape:transform-center-y="-0.55504017" />
    <rect
       style="fill:#ffff00;fill-opacity:1;stroke:none;stroke-width:2.3;stroke-linecap:square;stroke-linejoin:bevel;stroke-dasharray:none;stroke-opacity:1"
       id="rect23"
       width="7.5668788"
       height="0.63057327"
       x="52.337578"
       y="143.77069" />
    <rect
       style="fill:#ffff00;fill-opacity:1;stroke:none;stroke-width:2.3;stroke-linecap:square;stroke-linejoin:bevel;stroke-dasharray:none;stroke-opacity:1"
       id="rect24"
       width="5.0445862"
       height="0.63057327"
       x="305.19745"
       y="104.04459" />
    <ellipse
       style="fill:#0000ff;fill-opacity:1;stroke:none;stroke-width:2.13407;stroke-linecap:square;stroke-linejoin:bevel;stroke-dasharray:none;stroke-opacity:1"
       id="path24"
       cx="105.62103"
       cy="132.73567"
       rx="52.652866"
       ry="32.474522" />
    <path
       sodipodi:type="star"
       style="fill:#ffffff;fill-opacity:1;stroke:none;stroke-width:2.3;stroke-linecap:square;stroke-linejoin:bevel;stroke-dasharray:none;stroke-opacity:1"
       id="path26-2"
       inkscape:flatsided="false"
       sodipodi:sides="4"
       sodipodi:cx="113.03026"
       sodipodi:cy="164.42198"
       sodipodi:r1="2.4063206"
       sodipodi:r2="1.1556484"
       sodipodi:arg1="0.55165501"
       sodipodi:arg2="1.3370531"
       inkscape:rounded="0.08"
       inkscape:randomized="0"
       d="m 115.07962,165.68313 c -0.0749,0.12175 -1.64262,-0.17004 -1.78169,-0.13693 -0.13907,0.0331 -1.40707,1.00007 -1.52882,0.92514 -0.12175,-0.0749 0.17004,-1.64262 0.13693,-1.78169 -0.0331,-0.13906 -1.00007,-1.40707 -0.92514,-1.52881 0.0749,-0.12175 1.64262,0.17003 1.78169,0.13692 0.13906,-0.0331 1.40707,-1.00006 1.52881,-0.92514 0.12175,0.0749 -0.17003,1.64262 -0.13692,1.78169 0.0331,0.13907 1.00006,1.40707 0.92514,1.52882 z"
       inkscape:transform-center-x="1.2750489e-06"
       inkscape:transform-center-y="-1.9125733e-06"
       transform="translate(12.868664,-16.039013)" />
    <ellipse
       style="fill:#0000ff;fill-opacity:1;stroke:none;stroke-width:2.3;stroke-linecap:square;stroke-linejoin:bevel;stroke-dasharray:none;stroke-opacity:1"
       id="path25"
       cx="282.18152"
       cy="108.14332"
       rx="0.94585985"
       ry="1.5764331" />
    <path
       sodipodi:type="star"
       style="fill:#ffffff;fill-opacity:1;stroke:none;stroke-width:2.3;stroke-linecap:square;stroke-linejoin:bevel;stroke-dasharray:none;stroke-opacity:1"
       id="path26"
       inkscape:flatsided="false"
       sodipodi:sides="4"
       sodipodi:cx="101.20701"
       sodipodi:cy="151.81052"
       sodipodi:r1="1.94994"
       sodipodi:r2="1.1556484"
       sodipodi:arg1="0.24497866"
       sodipodi:arg2="1.0303768"
       inkscape:rounded="0.08"
       inkscape:randomized="0"
       d="m 103.09873,152.28345 c -0.0271,0.1084 -1.20133,0.46054 -1.29715,0.51803 -0.0958,0.0575 -0.9591,0.92786 -1.0675,0.90076 -0.10841,-0.0271 -0.46054,-1.20133 -0.51803,-1.29715 -0.0575,-0.0958 -0.927862,-0.9591 -0.900761,-1.0675 0.0271,-0.10841 1.201331,-0.46054 1.297141,-0.51803 0.0958,-0.0575 0.9591,-0.92786 1.06751,-0.90076 0.1084,0.0271 0.46054,1.20132 0.51803,1.29714 0.0575,0.0958 0.92786,0.9591 0.90076,1.06751 z"
       inkscape:transform-center-x="1.2750489e-06"
       inkscape:transform-center-y="-1.9125733e-06" />
    <path
       sodipodi:type="star"
       style="fill:#ffffff;fill-opacity:1;stroke:none;stroke-width:2.3;stroke-linecap:square;stroke-linejoin:bevel;stroke-dasharray:none;stroke-opacity:1"
       id="path27"
       inkscape:flatsided="false"
       sodipodi:sides="4"
       sodipodi:cx="101.83758"
       sodipodi:cy="141.87898"
       sodipodi:r1="2.8550415"
       sodipodi:r2="1.3711492"
       sodipodi:arg1="0.11065722"
       sodipodi:arg2="0.89605538"
       inkscape:rounded="0.08"
       inkscape:randomized="0"
       d="m 104.67516,142.19427 c -0.0187,0.16858 -1.84859,0.64944 -1.98103,0.7554 -0.13245,0.10596 -1.00326,1.78562 -1.17184,1.76689 -0.16857,-0.0187 -0.64944,-1.84858 -0.7554,-1.98103 -0.10596,-0.13244 -1.785622,-1.00326 -1.766891,-1.17183 0.01873,-0.16858 1.848581,-0.64945 1.981031,-0.75541 0.13244,-0.10595 1.00326,-1.78562 1.17183,-1.76689 0.16858,0.0187 0.64945,1.84859 0.75541,1.98103 0.10595,0.13245 1.78562,1.00326 1.76689,1.17184 z"
       inkscape:transform-center-x="1.2829931e-06"
       inkscape:transform-center-y="-1.7874517e-06" />
    <path
       sodipodi:type="star"
       style="fill:#ffffff;fill-opacity:1;stroke:none;stroke-width:2.3;stroke-linecap:square;stroke-linejoin:bevel;stroke-dasharray:none;stroke-opacity:1"
       id="path28"
       inkscape:flatsided="false"
       sodipodi:sides="4"
       sodipodi:cx="126.58758"
       sodipodi:cy="154.33279"
       sodipodi:r1="2.5468055"
       sodipodi:r2="1.4364783"
       sodipodi:arg1="0.38050638"
       sodipodi:arg2="1.1659045"
       inkscape:rounded="0.08"
       inkscape:randomized="0"
       d="m 128.95223,155.27865 c -0.0546,0.13648 -1.66369,0.31657 -1.7988,0.37448 -0.1351,0.0579 -1.37524,1.0989 -1.51171,1.04431 -0.13648,-0.0546 -0.31657,-1.66369 -0.37447,-1.79879 -0.0579,-0.1351 -1.09891,-1.37524 -1.04432,-1.51172 0.0546,-0.13647 1.66369,-0.31657 1.79879,-0.37447 0.13511,-0.0579 1.37524,-1.09891 1.51172,-1.04432 0.13647,0.0546 0.31657,1.66369 0.37447,1.7988 0.0579,0.1351 1.09891,1.37524 1.04432,1.51171 z"
       inkscape:transform-center-x="1.5749436e-06"
       inkscape:transform-center-y="-1.9244897e-06" />
    <path
       sodipodi:type="star"
       style="fill:#ffffff;fill-opacity:1;stroke:none;stroke-width:2.3;stroke-linecap:square;stroke-linejoin:bevel;stroke-dasharray:none;stroke-opacity:1"
       id="path29"
       inkscape:flatsided="false"
       sodipodi:sides="4"
       sodipodi:cx="112.55732"
       sodipodi:cy="155.12102"
       sodipodi:r1="2.2571087"
       sodipodi:r2="1.2730802"
       sodipodi:arg1="0.43240778"
       sodipodi:arg2="1.2178059"
       inkscape:rounded="0.08"
       inkscape:randomized="0"
       d="m 114.60668,156.06688 c -0.0546,0.11828 -1.48701,0.20369 -1.60925,0.24872 -0.12224,0.045 -1.26769,0.90937 -1.38597,0.85478 -0.11828,-0.0546 -0.20369,-1.48701 -0.24873,-1.60925 -0.045,-0.12224 -0.90936,-1.26769 -0.85477,-1.38597 0.0546,-0.11828 1.48701,-0.20369 1.60925,-0.24873 0.12224,-0.045 1.26769,-0.90937 1.38597,-0.85478 0.11828,0.0546 0.20369,1.48702 0.24873,1.60926 0.045,0.12223 0.90936,1.26769 0.85477,1.38597 z"
       inkscape:transform-center-x="1.418045e-06"
       inkscape:transform-center-y="-1.9542805e-06" />
    <path
       sodipodi:type="star"
       style="fill:#ffffff;fill-opacity:1;stroke:none;stroke-width:2.3;stroke-linecap:square;stroke-linejoin:bevel;stroke-dasharray:none;stroke-opacity:1"
       id="path30"
       inkscape:flatsided="false"
       sodipodi:sides="4"
       sodipodi:cx="127.21815"
       sodipodi:cy="158.90446"
       sodipodi:r1="2.0734742"
       sodipodi:r2="1.1695045"
       sodipodi:arg1="0.15264933"
       sodipodi:arg2="0.93804749"
       inkscape:rounded="0.08"
       inkscape:randomized="0"
       d="m 129.26751,159.21975 c -0.0182,0.11828 -1.26126,0.55704 -1.35776,0.62781 -0.0965,0.0708 -0.88861,1.12446 -1.00689,1.10627 -0.11828,-0.0182 -0.55704,-1.26126 -0.62781,-1.35776 -0.0708,-0.0965 -1.12446,-0.88861 -1.10627,-1.00689 0.0182,-0.11828 1.26126,-0.55704 1.35776,-0.62781 0.0965,-0.0708 0.88862,-1.12447 1.00689,-1.10627 0.11828,0.0182 0.55704,1.26126 0.62781,1.35776 0.0708,0.0965 1.12447,0.88861 1.10627,1.00689 z"
       inkscape:transform-center-x="1.5749435e-06"
       inkscape:transform-center-y="-1.9920156e-06" />
    <path
       sodipodi:type="star"
       style="fill:#ffffff;fill-opacity:1;stroke:none;stroke-width:2.3;stroke-linecap:square;stroke-linejoin:bevel;stroke-dasharray:none;stroke-opacity:1"
       id="path31"
       inkscape:flatsided="false"
       sodipodi:sides="4"
       sodipodi:cx="130.68629"
       sodipodi:cy="146.76593"
       sodipodi:r1="2.0188193"
       sodipodi:r2="1.1386774"
       sodipodi:arg1="0.89605538"
       sodipodi:arg2="1.6814535"
       inkscape:rounded="0.08"
       inkscape:randomized="0"
       d="m 131.94744,148.34236 c -0.091,0.0728 -1.27109,-0.43185 -1.38689,-0.44472 -0.1158,-0.0129 -1.3779,0.22042 -1.45069,0.12944 -0.0728,-0.091 0.43185,-1.27109 0.44472,-1.3869 0.0129,-0.1158 -0.22042,-1.3779 -0.12943,-1.45068 0.091,-0.0728 1.27109,0.43185 1.38689,0.44472 0.1158,0.0129 1.3779,-0.22042 1.45069,-0.12944 0.0728,0.091 -0.43186,1.27109 -0.44472,1.3869 -0.0129,0.1158 0.22041,1.3779 0.12943,1.45068 z"
       inkscape:transform-center-x="1.6464416e-06"
       inkscape:transform-center-y="-1.8490195e-06" />
    <path
       sodipodi:type="star"
       style="fill:#ffffff;fill-opacity:1;stroke:none;stroke-width:2.3;stroke-linecap:square;stroke-linejoin:bevel;stroke-dasharray:none;stroke-opacity:1"
       id="path32"
       inkscape:flatsided="false"
       sodipodi:sides="4"
       sodipodi:cx="135.4156"
       sodipodi:cy="145.82005"
       sodipodi:r1="2.1441808"
       sodipodi:r2="1.2093852"
       sodipodi:arg1="0.94200004"
       sodipodi:arg2="1.7273982"
       inkscape:rounded="0.08"
       inkscape:randomized="0"
       d="m 136.67675,147.55413 c -0.10008,0.0728 -1.32753,-0.52019 -1.44977,-0.53949 -0.12223,-0.0193 -1.47267,0.16664 -1.54545,0.0666 -0.0728,-0.10008 0.52019,-1.32753 0.53949,-1.44977 0.0193,-0.12223 -0.16664,-1.47267 -0.0666,-1.54545 0.10008,-0.0728 1.32753,0.52019 1.44976,0.53949 0.12224,0.0193 1.47267,-0.16665 1.54546,-0.0666 0.0728,0.10008 -0.52019,1.32753 -0.53949,1.44976 -0.0193,0.12224 0.16664,1.47267 0.0666,1.54546 z"
       inkscape:transform-center-x="1.7060234e-06"
       inkscape:transform-center-y="-1.8371031e-06" />
    <path
       sodipodi:type="star"
       style="fill:#ffffff;fill-opacity:1;stroke:none;stroke-width:2.3;stroke-linecap:square;stroke-linejoin:bevel;stroke-dasharray:none;stroke-opacity:1"
       id="path33"
       inkscape:flatsided="false"
       sodipodi:sides="4"
       sodipodi:cx="134.94267"
       sodipodi:cy="139.98724"
       sodipodi:r1="1.5842957"
       sodipodi:r2="0.89359242"
       sodipodi:arg1="0.099668652"
       sodipodi:arg2="0.88506682"
       inkscape:rounded="0.08"
       inkscape:randomized="0"
       d="m 136.51911,140.14489 c -0.009,0.091 -0.93981,0.47605 -1.01058,0.53396 -0.0708,0.0579 -0.63252,0.89393 -0.7235,0.88483 -0.091,-0.009 -0.47606,-0.93981 -0.53396,-1.01058 -0.0579,-0.0708 -0.89393,-0.63252 -0.88483,-0.7235 0.009,-0.091 0.93981,-0.47606 1.01058,-0.53396 0.0708,-0.0579 0.63251,-0.89393 0.7235,-0.88483 0.091,0.009 0.47605,0.93981 0.53396,1.01058 0.0579,0.0708 0.89392,0.63251 0.88483,0.7235 z"
       inkscape:transform-center-x="1.7000652e-06"
       inkscape:transform-center-y="-1.763619e-06" />
    <path
       sodipodi:type="star"
       style="fill:#ffffff;fill-opacity:1;stroke:none;stroke-width:2.3;stroke-linecap:square;stroke-linejoin:bevel;stroke-dasharray:none;stroke-opacity:1"
       id="path34"
       inkscape:flatsided="false"
       sodipodi:sides="4"
       sodipodi:cx="138.25319"
       sodipodi:cy="141.40605"
       sodipodi:r1="1.5764331"
       sodipodi:r2="0.88915765"
       sodipodi:arg1="0"
       sodipodi:arg2="0.78539816"
       inkscape:rounded="0.08"
       inkscape:randomized="0"
       d="m 139.82962,141.40605 c 0,0.091 -0.88337,0.5644 -0.9477,0.62873 -0.0643,0.0643 -0.53775,0.9477 -0.62873,0.9477 -0.091,0 -0.5644,-0.88336 -0.62873,-0.9477 -0.0643,-0.0643 -0.9477,-0.53774 -0.9477,-0.62873 0,-0.091 0.88336,-0.56439 0.9477,-0.62873 0.0643,-0.0643 0.53775,-0.9477 0.62873,-0.9477 0.091,0 0.56439,0.88337 0.62873,0.9477 0.0643,0.0643 0.9477,0.53775 0.9477,0.62873 z"
       inkscape:transform-center-x="1.7417724e-06"
       inkscape:transform-center-y="-1.7814935e-06" />
    <path
       sodipodi:type="star"
       style="fill:#ffffff;fill-opacity:1;stroke:none;stroke-width:2.3;stroke-linecap:square;stroke-linejoin:bevel;stroke-dasharray:none;stroke-opacity:1"
       id="path35"
       inkscape:flatsided="false"
       sodipodi:sides="4"
       sodipodi:cx="142.3519"
       sodipodi:cy="138.7261"
       sodipodi:r1="2.5419221"
       sodipodi:r2="1.4337236"
       sodipodi:arg1="0.51914611"
       sodipodi:arg2="1.3045443"
       inkscape:rounded="0.08"
       inkscape:randomized="0"
       d="m 144.5589,139.98725 c -0.0728,0.12738 -1.68823,0.0835 -1.82976,0.12206 -0.14154,0.0386 -1.51101,0.89659 -1.63839,0.8238 -0.12738,-0.0728 -0.0835,-1.68823 -0.12206,-1.82977 -0.0386,-0.14154 -0.89659,-1.511 -0.8238,-1.63838 0.0728,-0.12738 1.68823,-0.0835 1.82977,-0.12206 0.14154,-0.0386 1.51101,-0.89659 1.63838,-0.8238 0.12738,0.0728 0.0835,1.68823 0.12206,1.82977 0.0386,0.14153 0.89659,1.511 0.8238,1.63838 z"
       inkscape:transform-center-x="1.7934099e-06"
       inkscape:transform-center-y="-1.7477305e-06" />
    <path
       sodipodi:type="star"
       style="fill:#ffffff;fill-opacity:1;stroke:none;stroke-width:2.3;stroke-linecap:square;stroke-linejoin:bevel;stroke-dasharray:none;stroke-opacity:1"
       id="path36"
       inkscape:flatsided="false"
       sodipodi:sides="4"
       sodipodi:cx="139.82961"
       sodipodi:cy="122.01592"
       sodipodi:r1="2.0493629"
       sodipodi:r2="1.1559049"
       sodipodi:arg1="1.1760052"
       sodipodi:arg2="1.9614034"
       inkscape:rounded="0.08"
       inkscape:randomized="0"
       d="m 140.61782,123.90764 c -0.10918,0.0455 -1.11896,-0.77784 -1.22833,-0.82288 -0.10937,-0.045 -1.40611,-0.17144 -1.4516,-0.28062 -0.0455,-0.10918 0.77784,-1.11896 0.82288,-1.22833 0.045,-0.10937 0.17144,-1.40612 0.28062,-1.45161 0.10918,-0.0455 1.11896,0.77785 1.22833,0.82288 0.10937,0.045 1.40611,0.17145 1.4516,0.28063 0.0455,0.10918 -0.77784,1.11895 -0.82287,1.22832 -0.045,0.10937 -0.17145,1.40612 -0.28063,1.45161 z"
       inkscape:transform-center-x="1.7616329e-06"
       inkscape:transform-center-y="-1.5372085e-06" />
    <path
       sodipodi:type="star"
       style="fill:#ffffff;fill-opacity:1;stroke:none;stroke-width:2.3;stroke-linecap:square;stroke-linejoin:bevel;stroke-dasharray:none;stroke-opacity:1"
       id="path37"
       inkscape:flatsided="false"
       sodipodi:sides="4"
       sodipodi:cx="59.273884"
       sodipodi:cy="144.71655"
       sodipodi:r1="1.7974102"
       sodipodi:r2="1.0137957"
       sodipodi:arg1="0.66104317"
       sodipodi:arg2="1.4464413"
       inkscape:rounded="0.08"
       inkscape:randomized="0"
       d="m 60.692674,145.82006 c -0.06369,0.0819 -1.190108,-0.11041 -1.293044,-0.0975 -0.102937,0.0129 -1.147364,0.47651 -1.229249,0.41282 -0.08189,-0.0637 0.110403,-1.19011 0.09754,-1.29304 -0.01287,-0.10294 -0.476512,-1.14737 -0.412823,-1.22925 0.06369,-0.0819 1.190108,0.1104 1.293044,0.0975 0.102936,-0.0129 1.147364,-0.47652 1.229249,-0.41283 0.08188,0.0637 -0.110403,1.19011 -0.09754,1.29305 0.01287,0.10293 0.476511,1.14736 0.412823,1.22925 z"
       inkscape:transform-center-y="-1.8232007e-06" />
    <path
       sodipodi:type="star"
       style="fill:#ffffff;fill-opacity:1;stroke:none;stroke-width:2.3;stroke-linecap:square;stroke-linejoin:bevel;stroke-dasharray:none;stroke-opacity:1"
       id="path38"
       inkscape:flatsided="false"
       sodipodi:sides="4"
       sodipodi:cx="67.471336"
       sodipodi:cy="142.03664"
       sodipodi:r1="1.975265"
       sodipodi:r2="1.1141114"
       sodipodi:arg1="0.49934672"
       sodipodi:arg2="1.2847449"
       inkscape:rounded="0.08"
       inkscape:randomized="0"
       d="m 69.205413,142.9825 c -0.05459,0.10008 -1.310342,0.0908 -1.419712,0.12298 -0.10937,0.0322 -1.160142,0.71982 -1.260224,0.66523 -0.100083,-0.0546 -0.09081,-1.31034 -0.122981,-1.41971 -0.03217,-0.10937 -0.719826,-1.16014 -0.665236,-1.26022 0.05459,-0.10009 1.310342,-0.0908 1.419712,-0.12298 0.109369,-0.0322 1.160142,-0.71983 1.260224,-0.66524 0.100082,0.0546 0.09081,1.31034 0.12298,1.41971 0.03217,0.10937 0.719827,1.16014 0.665237,1.26023 z"
       inkscape:transform-center-y="-1.7894378e-06" />
    <path
       sodipodi:type="star"
       style="fill:#ffffff;fill-opacity:1;stroke:none;stroke-width:2.3;stroke-linecap:square;stroke-linejoin:bevel;stroke-dasharray:none;stroke-opacity:1"
       id="path39"
       inkscape:flatsided="false"
       sodipodi:sides="4"
       sodipodi:cx="71.412422"
       sodipodi:cy="137.30733"
       sodipodi:r1="0.89176524"
       sodipodi:r2="0.50298357"
       sodipodi:arg1="0.78539816"
       sodipodi:arg2="1.5707963"
       inkscape:rounded="0.08"
       inkscape:randomized="0"
       d="m 72.042995,137.9379 c -0.03639,0.0364 -0.579105,-0.12759 -0.630573,-0.12759 -0.05147,0 -0.59418,0.16398 -0.630573,0.12759 -0.03639,-0.0364 0.12759,-0.5791 0.12759,-0.63057 0,-0.0515 -0.163984,-0.59418 -0.12759,-0.63058 0.03639,-0.0364 0.579105,0.12759 0.630573,0.12759 0.05147,0 0.59418,-0.16398 0.630573,-0.12759 0.03639,0.0364 -0.127589,0.57911 -0.127589,0.63058 0,0.0515 0.163983,0.59418 0.127589,0.63057 z"
       inkscape:transform-center-y="-1.7298561e-06" />
    <path
       sodipodi:type="star"
       style="fill:#ffffff;fill-opacity:1;stroke:none;stroke-width:2.3;stroke-linecap:square;stroke-linejoin:bevel;stroke-dasharray:none;stroke-opacity:1"
       id="path40"
       inkscape:flatsided="false"
       sodipodi:sides="4"
       sodipodi:cx="76.141716"
       sodipodi:cy="141.72134"
       sodipodi:r1="2.0554173"
       sodipodi:r2="1.1593199"
       sodipodi:arg1="0.56672922"
       sodipodi:arg2="1.3521274"
       inkscape:rounded="0.08"
       inkscape:randomized="0"
       d="m 77.875792,142.82485 c -0.06369,0.10008 -1.366781,0.002 -1.482584,0.0282 -0.115804,0.0257 -1.254913,0.66605 -1.354995,0.60236 -0.100082,-0.0637 -0.0025,-1.36678 -0.02821,-1.48258 -0.02573,-0.11581 -0.666052,-1.25492 -0.602363,-1.355 0.06369,-0.10008 1.366781,-0.002 1.482584,-0.0282 0.115804,-0.0257 1.254913,-0.66605 1.354995,-0.60236 0.100082,0.0637 0.0025,1.36678 0.02821,1.48258 0.02573,0.11581 0.666052,1.25492 0.602363,1.355 z"
       inkscape:transform-center-y="-1.7854656e-06" />
    <path
       sodipodi:type="star"
       style="fill:#ffffff;fill-opacity:1;stroke:none;stroke-width:2.3;stroke-linecap:square;stroke-linejoin:bevel;stroke-dasharray:none;stroke-opacity:1"
       id="path41"
       inkscape:flatsided="false"
       sodipodi:sides="4"
       sodipodi:cx="75.3535"
       sodipodi:cy="147.71178"
       sodipodi:r1="2.712198"
       sodipodi:r2="1.5297649"
       sodipodi:arg1="0.62024949"
       sodipodi:arg2="1.4056476"
       inkscape:rounded="0.08"
       inkscape:randomized="0"
       d="m 77.560507,149.28821 c -0.09098,0.12738 -1.80111,-0.0932 -1.955515,-0.0675 -0.154404,0.0257 -1.700548,0.78904 -1.827925,0.69805 -0.127377,-0.091 0.09322,-1.80111 0.06748,-1.95551 -0.02573,-0.15441 -0.78904,-1.70055 -0.698056,-1.82793 0.09098,-0.12737 1.80111,0.0932 1.955514,0.0675 0.154405,-0.0257 1.700548,-0.78904 1.827925,-0.69806 0.127378,0.091 -0.09322,1.80111 -0.06748,1.95551 0.02573,0.15441 0.789039,1.70055 0.698056,1.82793 z"
       inkscape:transform-center-y="-1.8609358e-06" />
    <path
       sodipodi:type="star"
       style="fill:#ffffff;fill-opacity:1;stroke:none;stroke-width:2.3;stroke-linecap:square;stroke-linejoin:bevel;stroke-dasharray:none;stroke-opacity:1"
       id="path42"
       inkscape:flatsided="false"
       sodipodi:sides="4"
       sodipodi:cx="113.50318"
       sodipodi:cy="133.68153"
       sodipodi:r1="1.6076527"
       sodipodi:r2="0.90676659"
       sodipodi:arg1="1.3734008"
       sodipodi:arg2="2.1587989"
       inkscape:rounded="0.08"
       inkscape:randomized="0"
       d="m 113.81847,135.25797 c -0.091,0.0182 -0.74107,-0.77049 -0.81827,-0.82196 -0.0772,-0.0515 -1.05525,-0.34821 -1.07345,-0.43919 -0.0182,-0.091 0.77049,-0.74107 0.82196,-0.81827 0.0515,-0.0772 0.3482,-1.05525 0.43918,-1.07345 0.091,-0.0182 0.74107,0.77049 0.81828,0.82196 0.0772,0.0515 1.05525,0.3482 1.07344,0.43919 0.0182,0.091 -0.77048,0.74107 -0.82195,0.81827 -0.0515,0.0772 -0.34821,1.05525 -0.43919,1.07345 z"
       inkscape:transform-center-x="1.4398916e-06"
       inkscape:transform-center-y="-1.5511108e-06" />
    <path
       sodipodi:type="star"
       style="fill:#ffffff;fill-opacity:1;stroke:none;stroke-width:2.3;stroke-linecap:square;stroke-linejoin:bevel;stroke-dasharray:none;stroke-opacity:1"
       id="path43"
       inkscape:flatsided="false"
       sodipodi:sides="4"
       sodipodi:cx="77.087585"
       sodipodi:cy="152.91402"
       sodipodi:r1="2.0493629"
       sodipodi:r2="1.1559051"
       sodipodi:arg1="0.39479112"
       sodipodi:arg2="1.1801893"
       inkscape:rounded="0.08"
       inkscape:randomized="0"
       d="m 78.979305,153.70223 c -0.04549,0.10918 -1.342239,0.23559 -1.451609,0.28063 -0.10937,0.045 -1.119147,0.86837 -1.228327,0.82288 -0.10918,-0.0455 -0.235589,-1.34224 -0.280624,-1.45161 -0.04503,-0.10937 -0.868371,-1.11915 -0.822879,-1.22833 0.04549,-0.10918 1.342239,-0.23559 1.451609,-0.28062 0.10937,-0.045 1.119147,-0.86837 1.228327,-0.82288 0.10918,0.0455 0.235589,1.34224 0.280624,1.45161 0.04503,0.10937 0.868371,1.11914 0.822879,1.22832 z"
       inkscape:transform-center-y="-1.9264757e-06" />
    <path
       sodipodi:type="star"
       style="fill:#ffffff;fill-opacity:1;stroke:none;stroke-width:2.3;stroke-linecap:square;stroke-linejoin:bevel;stroke-dasharray:none;stroke-opacity:1"
       id="path44"
       inkscape:flatsided="false"
       sodipodi:sides="4"
       sodipodi:cx="80.713379"
       sodipodi:cy="157.17038"
       sodipodi:r1="1.9242818"
       sodipodi:r2="1.0853555"
       sodipodi:arg1="0.96007036"
       sodipodi:arg2="1.7454685"
       inkscape:rounded="0.08"
       inkscape:randomized="0"
       d="m 81.816882,158.74681 c -0.09098,0.0637 -1.182752,-0.48829 -1.292122,-0.50759 -0.10937,-0.0193 -1.324126,0.12565 -1.387814,0.0347 -0.06369,-0.091 0.488292,-1.18275 0.507593,-1.29212 0.0193,-0.10937 -0.125647,-1.32412 -0.03466,-1.38781 0.09098,-0.0637 1.182752,0.48829 1.292122,0.50759 0.10937,0.0193 1.324125,-0.12565 1.387814,-0.0347 0.06369,0.091 -0.488292,1.18275 -0.507593,1.29212 -0.0193,0.10937 0.125647,1.32412 0.03466,1.38781 z"
       inkscape:transform-center-x="1.0168614e-06"
       inkscape:transform-center-y="-1.9800993e-06" />
    <path
       sodipodi:type="star"
       style="fill:#ffffff;fill-opacity:1;stroke:none;stroke-width:2.3;stroke-linecap:square;stroke-linejoin:bevel;stroke-dasharray:none;stroke-opacity:1"
       id="path45"
       inkscape:flatsided="false"
       sodipodi:sides="4"
       sodipodi:cx="84.654457"
       sodipodi:cy="150.86464"
       sodipodi:r1="1.7974102"
       sodipodi:r2="1.013796"
       sodipodi:arg1="0.90975316"
       sodipodi:arg2="1.6951513"
       inkscape:rounded="0.08"
       inkscape:randomized="0"
       d="m 85.75796,152.28343 c -0.08188,0.0637 -1.126312,-0.39996 -1.229249,-0.41282 -0.102936,-0.0129 -1.229355,0.17942 -1.293044,0.0975 -0.06369,-0.0819 0.399956,-1.12631 0.412823,-1.22925 0.01287,-0.10293 -0.179421,-1.22935 -0.09754,-1.29304 0.08188,-0.0637 1.126313,0.39995 1.229249,0.41282 0.102936,0.0129 1.229355,-0.17942 1.293044,-0.0975 0.06369,0.0819 -0.399956,1.12631 -0.412823,1.22925 -0.01287,0.10293 0.179422,1.22935 0.09754,1.29304 z"
       inkscape:transform-center-x="1.0665128e-06"
       inkscape:transform-center-y="-1.900657e-06" />
    <path
       sodipodi:type="star"
       style="fill:#ffffff;fill-opacity:1;stroke:none;stroke-width:2.3;stroke-linecap:square;stroke-linejoin:bevel;stroke-dasharray:none;stroke-opacity:1"
       id="path46"
       inkscape:flatsided="false"
       sodipodi:sides="4"
       sodipodi:cx="87.492035"
       sodipodi:cy="157.17038"
       sodipodi:r1="2.0188193"
       sodipodi:r2="1.1386778"
       sodipodi:arg1="0.67474094"
       sodipodi:arg2="1.4601391"
       inkscape:rounded="0.08"
       inkscape:randomized="0"
       d="m 89.068468,158.43153 c -0.07279,0.091 -1.334884,-0.1423 -1.450687,-0.12944 -0.115803,0.0129 -1.295909,0.51751 -1.386893,0.44472 -0.09098,-0.0728 0.142301,-1.33488 0.129434,-1.45068 -0.01287,-0.11581 -0.517507,-1.29591 -0.44472,-1.3869 0.07279,-0.091 1.334884,0.1423 1.450687,0.12944 0.115803,-0.0129 1.295909,-0.51751 1.386892,-0.44472 0.09098,0.0728 -0.1423,1.33488 -0.129433,1.45068 0.01287,0.11581 0.517507,1.29591 0.44472,1.3869 z"
       inkscape:transform-center-x="1.1022619e-06"
       inkscape:transform-center-y="-1.9800993e-06" />
    <path
       sodipodi:type="star"
       style="fill:#ffffff;fill-opacity:1;stroke:none;stroke-width:2.3;stroke-linecap:square;stroke-linejoin:bevel;stroke-dasharray:none;stroke-opacity:1"
       id="path47"
       inkscape:flatsided="false"
       sodipodi:sides="4"
       sodipodi:cx="61.638535"
       sodipodi:cy="130.52866"
       sodipodi:r1="2.3435364"
       sodipodi:r2="1.3218284"
       sodipodi:arg1="0.34302394"
       sodipodi:arg2="1.1284221"
       inkscape:rounded="0.08"
       inkscape:randomized="0"
       d="m 63.845541,131.31687 c -0.04549,0.12738 -1.518913,0.34847 -1.64115,0.40637 -0.122237,0.0579 -1.226696,1.05791 -1.354073,1.01242 -0.127377,-0.0455 -0.348468,-1.51891 -0.40637,-1.64115 -0.0579,-0.12223 -1.057912,-1.22669 -1.01242,-1.35407 0.04549,-0.12738 1.518913,-0.34847 1.64115,-0.40637 0.122237,-0.0579 1.226696,-1.05791 1.354073,-1.01242 0.127377,0.0455 0.348468,1.51891 0.40637,1.64115 0.0579,0.12224 1.057912,1.2267 1.01242,1.35407 z"
       inkscape:transform-center-y="-1.6444556e-06" />
    <path
       sodipodi:type="star"
       style="fill:#ffffff;fill-opacity:1;stroke:none;stroke-width:2.3;stroke-linecap:square;stroke-linejoin:bevel;stroke-dasharray:none;stroke-opacity:1"
       id="path48"
       inkscape:flatsided="false"
       sodipodi:sides="4"
       sodipodi:cx="82.92038"
       sodipodi:cy="131.63216"
       sodipodi:r1="1.4275209"
       sodipodi:r2="0.68914071"
       sodipodi:arg1="-0.11065722"
       sodipodi:arg2="0.81813297"
       inkscape:rounded="0.08"
       inkscape:randomized="0"
       d="m 84.339169,131.47451 c -0.003,0.0924 -0.889969,0.58846 -0.947703,0.66063 -0.04837,0.0605 -0.236048,0.91834 -0.313443,0.91581 -0.09237,-0.003 -0.58846,-0.88997 -0.660627,-0.94771 -0.06047,-0.0484 -0.918341,-0.23604 -0.915806,-0.31344 0.003,-0.0924 0.88997,-0.58846 0.947703,-0.66063 0.04838,-0.0605 0.236048,-0.91834 0.313443,-0.9158 0.09237,0.003 0.58846,0.88997 0.660627,0.9477 0.06047,0.0484 0.918341,0.23605 0.915806,0.31344 z"
       inkscape:transform-center-x="1.0625407e-06"
       inkscape:transform-center-y="-1.5967902e-06" />
    <path
       sodipodi:type="star"
       style="fill:#ffffff;fill-opacity:1;stroke:none;stroke-width:2.3;stroke-linecap:square;stroke-linejoin:bevel;stroke-dasharray:none;stroke-opacity:1"
       id="path49"
       inkscape:flatsided="false"
       sodipodi:sides="4"
       sodipodi:cx="105.46338"
       sodipodi:cy="138.7261"
       sodipodi:r1="2.0554173"
       sodipodi:r2="0.99225992"
       sodipodi:arg1="0.56672922"
       sodipodi:arg2="1.3521274"
       inkscape:rounded="0.08"
       inkscape:randomized="0"
       d="m 107.19746,139.82961 c -0.0655,0.10291 -1.39975,-0.16134 -1.51883,-0.13487 -0.11908,0.0265 -1.21584,0.83093 -1.31875,0.76544 -0.10292,-0.0655 0.16133,-1.39974 0.13487,-1.51882 -0.0265,-0.11908 -0.83094,-1.21585 -0.76545,-1.31876 0.0655,-0.10291 1.39975,0.16134 1.51883,0.13487 0.11908,-0.0265 1.21584,-0.83093 1.31875,-0.76544 0.10292,0.0655 -0.16133,1.39974 -0.13487,1.51882 0.0265,0.11908 0.83094,1.21584 0.76545,1.31876 z"
       inkscape:transform-center-x="1.3286724e-06"
       inkscape:transform-center-y="-1.7477306e-06" />
    <path
       sodipodi:type="star"
       style="fill:#ffffff;fill-opacity:1;stroke:none;stroke-width:2.3;stroke-linecap:square;stroke-linejoin:bevel;stroke-dasharray:none;stroke-opacity:1"
       id="path50"
       inkscape:flatsided="false"
       sodipodi:sides="4"
       sodipodi:cx="105.77866"
       sodipodi:cy="145.66241"
       sodipodi:r1="2.3646498"
       sodipodi:r2="1.141543"
       sodipodi:arg1="0.64350111"
       sodipodi:arg2="1.4288993"
       inkscape:rounded="0.08"
       inkscape:randomized="0"
       d="m 107.67038,147.0812 c -0.0842,0.11227 -1.59135,-0.30856 -1.73028,-0.28872 -0.13892,0.0198 -1.46796,0.84586 -1.58023,0.76165 -0.11227,-0.0842 0.30857,-1.59135 0.28872,-1.73028 -0.0198,-0.13892 -0.84585,-1.46796 -0.76165,-1.58023 0.0842,-0.11226 1.59136,0.30857 1.73029,0.28872 0.13892,-0.0198 1.46795,-0.84585 1.58022,-0.76165 0.11227,0.0842 -0.30856,1.59136 -0.28872,1.73029 0.0198,0.13892 0.84586,1.46796 0.76165,1.58022 z"
       inkscape:transform-center-x="1.3326445e-06"
       inkscape:transform-center-y="-1.8351171e-06" />
    <path
       sodipodi:type="star"
       style="fill:#ffffff;fill-opacity:1;stroke:none;stroke-width:2.3;stroke-linecap:square;stroke-linejoin:bevel;stroke-dasharray:none;stroke-opacity:1"
       id="path51"
       inkscape:flatsided="false"
       sodipodi:sides="4"
       sodipodi:cx="111.13853"
       sodipodi:cy="141.72133"
       sodipodi:r1="2.4624672"
       sodipodi:r2="1.1887647"
       sodipodi:arg1="0.87605805"
       sodipodi:arg2="1.6614562"
       inkscape:rounded="0.08"
       inkscape:randomized="0"
       d="m 112.71496,143.61305 c -0.11227,0.0936 -1.53852,-0.69461 -1.68406,-0.70784 -0.14554,-0.0132 -1.69054,0.50482 -1.78409,0.39255 -0.0936,-0.11227 0.6946,-1.53852 0.70783,-1.68406 0.0132,-0.14554 -0.50482,-1.69053 -0.39255,-1.78409 0.11227,-0.0936 1.53852,0.69461 1.68406,0.70784 0.14554,0.0132 1.69054,-0.50482 1.7841,-0.39255 0.0936,0.11226 -0.69461,1.53851 -0.70784,1.68405 -0.0132,0.14555 0.50482,1.69054 0.39255,1.7841 z"
       inkscape:transform-center-x="1.3942123e-06"
       inkscape:transform-center-y="-1.7258839e-06" />
    <path
       sodipodi:type="star"
       style="fill:#ffffff;fill-opacity:1;stroke:none;stroke-width:2.3;stroke-linecap:square;stroke-linejoin:bevel;stroke-dasharray:none;stroke-opacity:1"
       id="path52"
       inkscape:flatsided="false"
       sodipodi:sides="4"
       sodipodi:cx="105.30573"
       sodipodi:cy="159.53503"
       sodipodi:r1="1.2005757"
       sodipodi:r2="0.57958215"
       sodipodi:arg1="1.1659045"
       sodipodi:arg2="1.9513027"
       inkscape:rounded="0.08"
       inkscape:randomized="0"
       d="m 105.77866,160.63854 c -0.0655,0.0281 -0.62202,-0.53892 -0.68818,-0.56538 -0.0661,-0.0265 -0.86018,2.9e-4 -0.88825,-0.0652 -0.0281,-0.0655 0.53891,-0.62202 0.56537,-0.68818 0.0265,-0.0662 -2.9e-4,-0.86018 0.0652,-0.88825 0.0655,-0.0281 0.62203,0.53891 0.68818,0.56538 0.0662,0.0265 0.86019,-3e-4 0.88826,0.0652 0.0281,0.0655 -0.53892,0.62203 -0.56538,0.68819 -0.0265,0.0661 2.9e-4,0.86018 -0.0652,0.88825 z"
       inkscape:transform-center-x="1.3266864e-06"
       inkscape:transform-center-y="-2.0098902e-06" />
    <path
       style="fill:#ffffff;stroke-width:5.59343;stroke-linecap:square;stroke-linejoin:bevel"
       d="m 55.558883,122.30416 c -0.0076,0.0296 -0.01463,0.0556 -0.02429,0.0842 0.02262,-0.008 0.01514,-0.0578 0.02429,-0.0842 z"
       id="path88" />
    <path
       style="fill:#ffffff;stroke-width:5.59343;stroke-linecap:square;stroke-linejoin:bevel"
       d="m 46.982662,118.71523 c 0.0314,0.0158 0.06314,0.0307 0.09715,0.0388 0.01385,0.003 -0.01475,-0.03 -0.02894,-0.031 -0.02207,-0.002 -0.04508,-0.005 -0.06821,-0.008 z"
       id="path87" />
    <path
       style="fill:#ffffff;stroke-width:5.59343;stroke-linecap:square;stroke-linejoin:bevel"
       d="m 158.37328,129.06241 c 1.4e-4,0.002 0.004,0.007 0.006,0.009 0.003,0.002 0.006,0.004 0.009,0.006 -2.2e-4,-3.1e-4 -2.9e-4,-7.4e-4 -5.2e-4,-0.001 -0.004,-0.006 -0.007,-0.0104 -0.0134,-0.0134 -0.001,-5.3e-4 -0.002,-5.9e-4 -0.002,0 z"
       id="path93" />
    <path
       style="fill:#ffffff;stroke-width:5.59343;stroke-linecap:square;stroke-linejoin:bevel"
       d="m 58.416589,118.47339 c -0.0083,0.0444 -0.03862,0.094 -0.09819,0.14004 -0.06554,0.0507 -0.135188,0.0953 -0.203088,0.14263 -0.09911,0.0711 -0.207983,0.12663 -0.314193,0.18603 -0.0088,0.005 -0.01657,0.0115 -0.02532,0.0165 -0.01231,0.0369 -0.02524,0.0737 -0.03927,0.11007 -0.0168,0.0435 -0.144589,0.14409 -0.185519,0.18449 -0.06412,0.0539 -0.13,0.10756 -0.200504,0.15296 -0.0044,0.003 -0.03597,0.0301 -0.05633,0.046 -0.01931,0.0277 -0.03858,0.0556 -0.05736,0.0837 -0.05078,0.0919 -0.11298,0.17626 -0.1788,0.25786 -0.04567,0.066 -0.0983,0.12587 -0.154513,0.18242 -0.09734,0.15693 -0.193561,0.31456 -0.296106,0.46819 -0.166423,0.23542 -0.318983,0.47986 -0.475423,0.72192 -0.03851,0.0606 -0.0716,0.12446 -0.10852,0.18603 -0.0479,0.1564 -0.112854,0.30594 -0.206706,0.44132 -0.03707,0.0518 -0.05063,0.0706 -0.06615,0.0904 -0.008,0.0884 -0.02157,0.17609 -0.04909,0.26097 -0.02727,0.0731 -0.05696,0.14138 -0.09663,0.20722 -0.0084,0.0568 -0.02205,0.11293 -0.04134,0.16692 -0.0096,0.0268 -0.01477,0.0561 -0.03049,0.0796 0.01,0.0607 0.013,0.12009 0.0062,0.17673 5.81128,1.42193 30.305603,4.10588 57.606824,6.26887 l 3.12332,0.24753 c 19.12,1.51482 34.4152,2.3558 42.00312,2.40709 10e-4,-0.009 0.003,-0.0179 0.005,-0.0269 9.1e-4,-0.005 0.003,-0.0106 0.004,-0.016 -0.004,-0.0328 -0.004,-0.066 -0.007,-0.0987 -0.006,-0.0316 -0.004,-0.0641 -0.0103,-0.0956 -0.006,-0.0334 -0.0104,-0.0669 -0.0134,-0.10077 -0.005,-0.0454 -0.003,-0.0908 0.003,-0.1359 0.006,-0.031 0.0115,-0.0621 0.0145,-0.0935 0.002,-0.0278 0.003,-0.0554 0.001,-0.0832 -0.002,-0.0236 -0.005,-0.0473 -0.0134,-0.0698 -0.0129,-0.043 -0.023,-0.0869 -0.032,-0.13074 -0.008,-0.0401 -0.0135,-0.0812 -0.0165,-0.12196 2e-4,-0.0279 -0.004,-0.0545 -0.0103,-0.0816 -0.007,-0.0371 -0.0122,-0.0744 -0.0212,-0.1111 -0.0115,-0.0402 -0.0152,-0.0819 -0.0222,-0.12299 -0.006,-0.0372 -0.0101,-0.0743 -0.0181,-0.11111 -0.0104,-0.0472 -0.0177,-0.0951 -0.0227,-0.14314 -0.004,-0.0368 -0.005,-0.0737 -0.006,-0.11059 -0.005,-0.0395 -0.0121,-0.0788 -0.0171,-0.11834 -0.006,-0.0436 -0.008,-0.0875 -0.0103,-0.13126 -0.001,-0.0381 -0.002,-0.0761 -0.002,-0.1142 -6e-5,-0.0107 6e-5,-0.0213 0,-0.032 -0.008,-0.009 -0.0166,-0.0191 -0.0258,-0.0274 -0.0201,-0.0345 -0.0254,-0.0722 -0.0274,-0.1111 -0.003,-0.0537 0.005,-0.0971 0.0202,-0.13074 -0.007,-0.0178 -0.0134,-0.0358 -0.0212,-0.0532 -0.0152,-0.0378 -0.0276,-0.0768 -0.0413,-0.11524 -0.009,-0.0325 -0.0167,-0.0651 -0.0227,-0.0982 -0.007,-0.0351 -0.0208,-0.0695 -0.0238,-0.10542 -0.002,-0.0187 -0.004,-0.037 -0.0103,-0.0548 -0.0158,-0.0467 -0.0234,-0.09 -0.015,-0.13384 l -3.17035,-1.31207 c -3.17961,-1.3158 -29.33981,-4.24468 -58.652235,-6.56704 l -3.122807,-0.24753 c -14.007325,-1.10976 -26.059511,-1.86721 -34.548279,-2.2195 z"
       id="path86" />
    <path
       style="fill:#ffffff;stroke-width:5.59343;stroke-linecap:square;stroke-linejoin:bevel"
       d="m 57.847115,118.45582 c 0.01341,0.0372 0.02758,0.0738 0.04392,0.10904 0.0211,-0.0133 0.04427,-0.0232 0.0646,-0.0377 0.03164,-0.022 0.06374,-0.0434 0.0956,-0.0651 -0.07706,-0.004 -0.133041,-0.004 -0.204122,-0.006 z"
       id="path85" />
    <path
       style="fill:#ffffff;stroke-width:5.59343;stroke-linecap:square;stroke-linejoin:bevel"
       d="m 45.91141,118.43618 c -0.01192,0.002 -0.03768,0.003 -0.04909,0.006 0.0089,0.005 0.01804,0.0119 0.02687,0.0171 0.0071,-0.008 0.01485,-0.0151 0.02222,-0.0227 z"
       id="path53" />
    <text
       xml:space="preserve"
       style="font-size:4.01451px;white-space:pre;inline-size:72.6851;fill:#008000;fill-opacity:1;stroke:none;stroke-width:2.90815;stroke-linecap:square;stroke-linejoin:bevel;stroke-dasharray:none;stroke-opacity:1"
       x="131.51334"
       y="143.51814"
       id="text107"
       transform="matrix(1.2680392,0.09875281,-0.91018745,0.76451605,25.376025,0.11881228)"><tspan
         x="131.51334"
         y="143.51814"
         id="tspan1">O R D E M   E   P R O G R E S S O</tspan></text>
  </g>
</svg>
